<svg width="512" height="318" viewBox="0 0 512 318" fill="none" xmlns="http://www.w3.org/2000/svg">
<path d="M190.453 285.679V317.421H126.968V285.679H190.453ZM285.679 190.453V126.968C285.679 74.3764 243.045 31.7421 190.453 31.7421H126.968C74.3764 31.7421 31.7421 74.3764 31.7421 126.968V190.453C31.7421 243.045 74.3764 285.679 126.968 285.679V317.421L120.428 317.266C55.5106 313.972 3.44884 261.91 0.154991 196.993L0 190.453V126.968C0 56.8457 56.8457 1.0225e-06 126.968 0H190.453C260.575 0 317.421 56.8457 317.421 126.968V190.453C317.421 258.382 264.076 313.862 196.993 317.266L190.453 317.421V285.679C243.045 285.679 285.679 243.045 285.679 190.453Z" fill="white"/>
<path d="M349.163 224.417V4.44389H381.223V26.9808H386.301C390.322 19.9975 396.353 13.7549 404.394 8.25294C412.647 2.75097 424.392 0 439.628 0C452.748 0 464.704 3.1742 475.497 9.52262C486.501 15.871 495.283 25.0763 501.843 37.1382C508.614 48.9886 512 63.3784 512 80.3075V85.0688C512 101.998 508.72 116.493 502.16 128.555C495.6 140.406 486.818 149.505 475.814 155.854C464.81 162.202 452.748 165.376 439.628 165.376C429.471 165.376 420.9 164.107 413.917 161.567C406.934 159.028 401.326 155.854 397.094 152.045C392.862 148.024 389.476 143.897 386.936 139.665H381.858V224.417H349.163ZM430.106 136.808C444.495 136.808 456.24 132.259 465.339 123.159C474.439 114.06 478.988 101.046 478.988 84.1165V81.2597C478.988 64.5422 474.333 51.6338 465.022 42.5344C455.922 33.435 444.284 28.8853 430.106 28.8853C416.139 28.8853 404.5 33.435 395.189 42.5344C386.09 51.6338 381.54 64.5422 381.54 81.2597V84.1165C381.54 101.046 386.09 114.06 395.189 123.159C404.5 132.259 416.139 136.808 430.106 136.808Z" fill="white"/>
<path d="M158.694 65.9609C149.419 65.9609 83.0181 104.303 78.3813 112.334L158.694 251.456L239.022 112.334C234.385 104.302 167.97 65.9609 158.694 65.9609Z" fill="white"/>
<path d="M78.3997 112.335L158.713 251.456C167.988 251.456 234.405 213.115 239.04 205.083C243.678 197.051 243.678 120.367 239.04 112.335L158.713 158.708L78.3997 112.335Z" fill="#DFDFDF"/>
<path d="M78.381 112.335C73.7439 120.368 73.7433 197.052 78.381 205.082C83.0186 213.114 149.42 251.456 158.696 251.456V158.709L78.381 112.335Z" fill="#D6D2D2"/>
</svg>
